<svg xmlns="http://www.w3.org/2000/svg" xmlns:xlink="http://www.w3.org/1999/xlink" version="1.0" x="0px" y="0px" viewBox="0 0 50 62.5" enable-background="new 0 0 50 50" xml:space="preserve"><g><g><path fill="#51A7F9" d="M32.273,11.111c3.748-0.555,5.793-2.07,5.793-2.07c-1.707,0.391-3.074,0.049-3.074,0.049    c-4.039-1.412-6.184-0.199-7.035,0.539c-0.131,0.187-0.279,0.351-0.449,0.469c0,0,0.145-0.205,0.449-0.469    c0.68-0.972,0.865-2.645,0.865-2.645c0.029-0.769,0.816-1.252,0.816-1.252c-1.885,0.1-3.803,3.363-3.803,3.363    c-1.41-1.165,0.903-8.09,0.903-8.09L24.344,1c-1.657,3.902-0.985,8.001-0.985,8.001c-1.606-0.488-2.93-3.958-2.93-3.958    c-0.712,0.743,0.105,4.022,0.105,4.022c-3.022-1.481-7.319,1.35-7.319,1.35c2.015-1.292,6.739,0.425,6.739,0.425l0.033,0.144    c1.811-0.211,3.702-0.31,5.653-0.31C27.947,10.674,30.172,10.813,32.273,11.111z"/><path fill="#000000" d="M27.508,10.098c0.17-0.118,0.318-0.282,0.449-0.469C27.652,9.893,27.508,10.098,27.508,10.098z"/></g><g><path fill="#51A7F9" d="M25.321,11.784c-12.783,0-23.146,4.196-23.146,16.979s9.979,21.088,23.146,20.063    c13.666,1.537,23.146-7.279,23.146-20.063S38.104,11.784,25.321,11.784z M16.152,17.088c-3.056,4.747-5.122,9.255-5.333,13.146    C10.39,38.121,16.3,43.974,16.3,43.974c-7.278-3.565-8.275-9.653-8.318-13.739C7.888,21.245,16.152,17.088,16.152,17.088z"/></g></g></svg>
